<svg width="875" height="193" viewBox="0 0 875 193" fill="none" xmlns="http://www.w3.org/2000/svg">
<g clip-path="url(#clip0)">
<path fill-rule="evenodd" clip-rule="evenodd" d="M9 4.5C9 2.01472 6.98528 0 4.5 0C2.01472 0 0 2.01472 0 4.5V25.2437C0 64.1797 31.5639 95.7437 70.5 95.7437H790.5C824.466 95.7437 852 123.278 852 157.244V177.083L845.79 170.43C844.094 168.613 841.246 168.515 839.43 170.21C837.613 171.906 837.515 174.754 839.21 176.57L853.21 191.57C854.061 192.482 855.253 193 856.5 193C857.747 193 858.939 192.482 859.79 191.57L873.79 176.57C875.486 174.754 875.387 171.906 873.57 170.21C871.754 168.515 868.906 168.613 867.21 170.43L861 177.083V157.244C861 118.308 829.436 86.7437 790.5 86.7437H70.5C36.5345 86.7437 9 59.2092 9 25.2437V4.5Z" fill="#E0E0E0"/>
</g>
<defs>
<clipPath id="clip0">
<rect width="875" height="193" fill="white"/>
</clipPath>
</defs>
</svg>
