<svg width="1600" height="700" viewBox="0 0 1600 700" fill="none" xmlns="http://www.w3.org/2000/svg">
<mask id="mask0" style="mask-type:alpha" maskUnits="userSpaceOnUse" x="0" y="0" width="1600" height="700">
<rect width="1600" height="700" fill="#C4C4C4"/>
</mask>
<g mask="url(#mask0)">
<path d="M1201.61 84.9197C1199 77.4624 1205.66 70.0641 1213.35 71.8823L1794.83 209.378C1802.22 211.126 1805.05 220.155 1799.96 225.801L1416 652.229C1410.92 657.875 1401.65 656.014 1399.13 648.844L1201.61 84.9197Z" fill="#EF413F"/>
<path d="M688.581 561.606C680.792 560.275 677.551 550.862 682.869 545.019L840.328 371.995C845.442 366.376 854.706 368.287 857.18 375.47L930.324 587.896C932.797 595.079 926.673 602.289 919.184 601.009L688.581 561.606Z" fill="#FDC430"/>
<path d="M397.818 616.172C394.818 617.164 391.905 614.448 392.686 611.386L401.326 577.499C402.077 574.554 405.708 573.489 407.93 575.561L432.492 598.466C434.715 600.538 433.905 604.234 431.02 605.189L397.818 616.172Z" fill="#064E89"/>
<path d="M167.516 66.5501C165.692 65.0361 166.262 62.1043 168.52 61.3838L201.085 50.9933C203.256 50.3005 205.377 52.1865 204.942 54.4238L198.678 86.6471C198.243 88.8843 195.571 89.8387 193.817 88.3829L167.516 66.5501Z" fill="#FDC430"/>
<path d="M727.929 206.684C728.89 203.673 732.799 202.913 734.818 205.345L748.314 221.603C750.255 223.941 748.982 227.504 745.999 228.084L726.081 231.956C723.098 232.536 720.583 229.709 721.507 226.814L727.929 206.684Z" fill="#EF413F"/>
</g>
</svg>
