<?xml version="1.0" encoding="UTF-8"?>
<svg width="449px" height="123px" viewBox="0 0 449 123" version="1.1" xmlns="http://www.w3.org/2000/svg" xmlns:xlink="http://www.w3.org/1999/xlink">
    <!-- Generator: Sketch 51.3 (57544) - http://www.bohemiancoding.com/sketch -->
    <title>logotext</title>
    <desc>Created with Sketch.</desc>
    <defs></defs>
    <g id="Page-1"  fill="currentColor" fill-rule="evenodd">
        <g id="logotext">
            <path d="M0,102 L21,123 L21,79 C25,83 30,87 39,87 C53,87 65,76 65,57 L65,56 C65,38 53,26 39,26 C30,26 25,30 21,35 L21,27 L0,27 L0,102 Z M233,86 L254,86 L254,22 L233,2 L233,86 Z M196,88 C208,88 216,83 221,76 L210,66 C206,70 202,72 197,72 C191,72 186,69 184,62 L224,62 C224,61 224,59 224,58 C224,41 214,26 194,26 C177,26 164,40 164,57 C164,75 177,88 196,88 Z M184,52 C185,45 189,41 194,41 C200,41 204,45 204,52 L184,52 Z M102,86 L124,86 L133,71 L142,86 L164,86 L144,56 L164,27 L142,27 L133,42 L124,27 L102,27 L122,56 L102,86 Z M74,22 L96,22 L74,0 L74,22 Z M74,86 L95,86 L95,27 L74,27 L74,86 Z M33,70 C26,70 21,65 21,57 C21,49 26,43 33,43 C40,43 45,49 45,57 C45,65 40,70 33,70 Z" id="Shape" fill="#ffffff"></path>
            <path d="M294,88 C306,88 314,83 320,76 L308,66 C304,70 300,72 295,72 C289,72 284,69 282,62 L322,62 C322,61 322,59 322,58 C322,41 313,26 292,26 C275,26 262,40 262,57 C262,75 276,88 294,88 Z M428,123 L449,102 L449,27 L428,27 L428,34 C424,30 419,26 410,26 C396,26 384,38 384,57 C384,76 396,87 410,87 C419,87 424,83 428,78 L428,123 Z M417,70 C410,70 405,65 405,57 C405,49 410,43 417,43 C423,43 429,49 429,57 C429,65 423,70 417,70 Z M354,87 C368,87 378,81 378,68 C378,56 369,52 357,49 C351,47 348,46 348,44 L348,43 C348,42 349,41 352,41 C357,41 364,43 370,46 L377,33 C370,29 361,26 353,26 C339,26 329,33 329,46 C329,58 338,62 350,65 C356,66 359,67 359,70 C359,72 358,73 354,73 C348,73 341,71 334,66 L326,79 C334,85 344,87 354,87 Z M282,52 C283,45 287,41 292,41 C298,41 302,45 303,52 L282,52 Z" id="Shape" fill="#D94646"></path>
        </g>
    </g>
</svg>