<svg width="192" height="207" viewBox="0 0 192 207" fill="none" xmlns="http://www.w3.org/2000/svg">
<path fill-rule="evenodd" clip-rule="evenodd" d="M94.6165 193.753C95.4982 200.289 103.23 203.473 108.572 199.5L185.77 142.089C191.169 138.074 190.053 129.8 183.772 127.279L93.9678 91.2316C87.7529 88.7369 81.128 93.7575 82.0097 100.294L94.6165 193.753Z" fill="#064E89"/>
<path fill-rule="evenodd" clip-rule="evenodd" d="M120.106 27.9491C120.707 29.3901 122.67 29.6456 123.649 28.4103L137.794 10.5602C138.783 9.31187 138.022 7.48782 136.431 7.29526L113.689 4.54187C112.115 4.35132 110.907 5.90462 111.508 7.34563L120.106 27.9491Z" fill="#FDC430"/>
<path fill-rule="evenodd" clip-rule="evenodd" d="M2.76165 152.648C2.50769 153.514 3.29705 154.343 4.18647 154.144L17.0385 151.267C17.9373 151.066 18.2588 149.969 17.6139 149.304L8.39312 139.792C7.75499 139.134 6.64685 139.392 6.39288 140.259L2.76165 152.648Z" fill="#F1573B"/>
</svg>
