<svg width="837" height="311" viewBox="0 0 837 311" fill="none" xmlns="http://www.w3.org/2000/svg">
<path fill-rule="evenodd" clip-rule="evenodd" d="M801.699 325.485C805.41 329.171 811.812 327.441 813.255 322.361L834.1 248.964C835.558 243.831 830.86 239.164 825.692 240.611L751.785 261.297C746.67 262.729 744.926 269.087 748.637 272.773L801.699 325.485Z" fill="#EF413F"/>
<path fill-rule="evenodd" clip-rule="evenodd" d="M2.67841 34.8808C-0.735494 38.5353 1.10581 44.602 6.00201 45.8313L76.7506 63.5956C81.698 64.838 86.02 60.2121 84.486 55.3155L62.5485 -14.7005C61.0303 -19.546 54.9038 -21.0254 51.4899 -17.371L2.67841 34.8808Z" fill="#064E89"/>
<path fill-rule="evenodd" clip-rule="evenodd" d="M41.3051 138.24C42.4855 137.541 42.4688 135.802 41.275 135.101L24.0244 124.969C22.818 124.26 21.3239 125.145 21.35 126.552L21.7235 146.671C21.7494 148.064 23.2477 148.926 24.4281 148.227L41.3051 138.24Z" fill="#F1573B"/>
<path fill-rule="evenodd" clip-rule="evenodd" d="M813.035 161.342C812.433 162.574 813.403 164.017 814.786 163.947L834.766 162.924C836.163 162.853 836.925 161.293 836.13 160.132L824.755 143.532C823.967 142.383 822.242 142.487 821.64 143.72L813.035 161.342Z" fill="#F1573B"/>
<path fill-rule="evenodd" clip-rule="evenodd" d="M643.172 266.239C641.82 266.008 640.708 267.344 641.164 268.651L647.762 287.538C648.224 288.859 649.935 289.151 650.825 288.061L663.558 272.479C664.439 271.4 663.854 269.773 662.502 269.542L643.172 266.239Z" fill="#064E89"/>
<path fill-rule="evenodd" clip-rule="evenodd" d="M151.692 38.968C150.856 40.0548 151.517 41.6631 152.886 41.8709L172.665 44.874C174.048 45.084 175.107 43.7082 174.561 42.4114L166.744 23.8685C166.203 22.5852 164.491 22.3412 163.655 23.4281L151.692 38.968Z" fill="#EF413F"/>
</svg>
