<svg width="175" height="149" viewBox="0 0 175 149" fill="none" xmlns="http://www.w3.org/2000/svg">
<g clip-path="url(#clip0)">
<path fill-rule="evenodd" clip-rule="evenodd" d="M2.67841 34.8808C-0.735496 38.5353 1.10581 44.602 6.00201 45.8313L76.7506 63.5956C81.698 64.838 86.02 60.2121 84.486 55.3155L62.5485 -14.7005C61.0303 -19.546 54.9038 -21.0254 51.4899 -17.371L2.67841 34.8808Z" fill="#064E89"/>
<path fill-rule="evenodd" clip-rule="evenodd" d="M41.3051 138.24C42.4855 137.541 42.4688 135.802 41.275 135.101L24.0244 124.969C22.818 124.26 21.3239 125.145 21.35 126.552L21.7235 146.671C21.7494 148.064 23.2477 148.926 24.4281 148.227L41.3051 138.24Z" fill="#F1573B"/>
<path fill-rule="evenodd" clip-rule="evenodd" d="M151.692 38.968C150.856 40.0548 151.517 41.6631 152.886 41.8709L172.665 44.874C174.048 45.084 175.107 43.7082 174.561 42.4114L166.744 23.8685C166.203 22.5852 164.491 22.3412 163.655 23.4281L151.692 38.968Z" fill="#EF413F"/>
</g>
<defs>
<clipPath id="clip0">
<rect width="175" height="149" fill="white"/>
</clipPath>
</defs>
</svg>
