<svg width="196" height="169" viewBox="0 0 196 169" fill="none" xmlns="http://www.w3.org/2000/svg">
<g clip-path="url(#clip0)">
<path fill-rule="evenodd" clip-rule="evenodd" d="M160.699 183.485C164.41 187.171 170.812 185.441 172.255 180.361L193.1 106.964C194.558 101.831 189.86 97.164 184.692 98.611L110.785 119.297C105.67 120.729 103.926 127.087 107.637 130.773L160.699 183.485Z" fill="#FDC430"/>
<path fill-rule="evenodd" clip-rule="evenodd" d="M172.035 19.342C171.433 20.574 172.403 22.017 173.786 21.947L193.766 20.924C195.163 20.853 195.925 19.293 195.13 18.132L183.755 1.532C182.967 0.383002 181.242 0.487006 180.64 1.72L172.035 19.342Z" fill="#F1573B"/>
<path fill-rule="evenodd" clip-rule="evenodd" d="M2.172 124.239C0.819998 124.008 -0.291998 125.344 0.164002 126.651L6.76202 145.538C7.22402 146.859 8.93501 147.151 9.82501 146.061L22.558 130.479C23.439 129.4 22.854 127.773 21.502 127.542L2.172 124.239Z" fill="#064E89"/>
</g>
<defs>
<clipPath id="clip0">
<rect width="196" height="169" fill="white"/>
</clipPath>
</defs>
</svg>
