<svg width="203" height="229" viewBox="0 0 203 229" fill="none" xmlns="http://www.w3.org/2000/svg">
<path fill-rule="evenodd" clip-rule="evenodd" d="M118.871 150.997C126.416 153.083 133.497 146.13 131.652 138.446L104.996 27.4144C103.132 19.6495 93.5808 17.0088 87.9003 22.6877L6.67326 103.891C1.05191 109.511 3.44188 119.083 10.9872 121.169L118.871 150.997Z" fill="#FDC430"/>
<path fill-rule="evenodd" clip-rule="evenodd" d="M72.9958 225.219C73.7155 226.604 75.693 226.695 76.5652 225.382L89.1682 206.412C90.0496 205.085 89.1386 203.331 87.5376 203.272L64.6444 202.43C63.0601 202.372 61.9861 204.021 62.7057 205.406L72.9958 225.219Z" fill="#F1573B"/>
<path fill-rule="evenodd" clip-rule="evenodd" d="M184.762 99.6468C184.508 100.513 185.297 101.342 186.186 101.143L199.038 98.2658C199.937 98.0645 200.259 96.9678 199.614 96.3026L190.393 86.791C189.755 86.1328 188.647 86.3915 188.393 87.2579L184.762 99.6468Z" fill="#064E89"/>
</svg>
